# This file uses centimeters as units for non-parametric coordinates.

mtllib Desk.mtl
g default
v -10.969923 4.535467 5.507583
v 10.969923 4.535467 5.507583
v -10.969923 4.535467 -5.507583
v 10.969923 4.535467 -5.507583
v -9.127542 4.535467 5.507583
v -9.127542 4.535467 -5.507583
v -9.741307 4.535467 5.507583
v -9.741307 4.535467 -5.507583
v 9.608435 4.535467 5.507583
v 9.608435 4.535467 -5.507583
v 8.778169 4.535467 5.507583
v 8.778169 4.535467 -5.507583
v 10.969923 4.535467 4.202409
v 8.778169 4.535467 4.202411
v -9.127542 4.535469 4.202411
v -10.969923 4.535468 4.202409
v -9.741307 4.960198 4.202409
v -9.127544 4.960198 4.202410
v 8.778169 4.960198 4.202410
v 9.608435 4.960198 4.202409
v 10.969923 4.535467 3.673918
v 9.608435 4.535467 3.673918
v 8.778169 4.535467 3.673918
v -9.127544 4.535467 3.673918
v -9.741306 4.535469 3.673918
v -10.969923 4.535468 3.673918
v -9.741307 4.960198 3.673918
v -9.127542 4.960198 3.673918
v 8.778169 4.960198 3.673918
v 9.608435 4.960199 3.673918
v 10.969923 4.535468 -4.252930
v 9.608435 4.535467 -4.252930
v 8.778169 4.535467 -4.252930
v -9.127542 4.535468 -4.252933
v -9.741307 4.535467 -4.252930
v -10.969923 4.535467 -4.252930
v -9.741307 4.960198 -4.252930
v -9.127542 4.960198 -4.252930
v 8.778169 4.960198 -4.252930
v 9.608435 4.960198 -4.252930
v 10.969923 4.535467 -3.559082
v 9.608435 4.535467 -3.559082
v 8.778169 4.535467 -3.559082
v -9.127542 4.535469 -3.559084
v -9.741307 4.535468 -3.559082
v -10.969923 4.535467 -3.559082
v -9.741307 4.960198 -3.559082
v -9.127544 4.960198 -3.559082
v 8.778169 4.960198 -3.559082
v 9.608435 4.960199 -3.559082
v 8.778169 -0.105216 3.673918
v 9.608435 -0.105216 3.673918
v -9.741306 -0.105215 3.673918
v -9.127540 -0.105215 3.673919
v 8.778169 -0.105216 -4.252932
v 8.778169 -0.105216 -3.559084
v 9.608435 -0.105216 -4.252932
v 9.608435 -0.105216 -3.559084
v -9.741307 -0.105216 -4.252930
v -9.741307 -0.105216 -3.559082
v -9.127542 -0.105216 -4.252933
v -9.127542 -0.105216 -3.559084
v -10.969923 4.747854 5.507583
v -10.757579 4.960198 5.295239
v -9.741307 4.747854 5.507583
v -9.741307 4.960198 5.295239
v -10.757579 4.960198 -5.295239
v -10.969923 4.747854 -5.507583
v -9.741307 4.747854 -5.507583
v -9.741307 4.960198 -5.295239
v -10.969923 4.747854 4.202409
v -10.757579 4.960198 4.202409
v 10.969923 4.747854 5.507583
v 10.757579 4.960198 5.295239
v 10.757579 4.960198 4.202409
v 10.969923 4.747854 4.202409
v -9.127542 4.747854 5.507583
v -9.127542 4.960198 5.295239
v 8.778169 4.747854 5.507583
v 8.778169 4.960198 5.295239
v -9.127542 4.747854 -5.507583
v -9.127542 4.960198 -5.295239
v 8.778169 4.747854 -5.507583
v 8.778169 4.960198 -5.295239
v 9.608435 4.747854 5.507583
v 9.608435 4.960198 5.295239
v 10.969923 4.747854 -5.507583
v 10.757579 4.960198 -5.295239
v 9.608435 4.747854 -5.507583
v 9.608435 4.960198 -5.295239
v -10.969923 4.747854 3.673918
v -10.757579 4.960198 3.673918
v 10.757579 4.960198 3.673918
v 10.969923 4.747854 3.673918
v -10.969923 4.747854 -3.559082
v -10.757579 4.960198 -3.559082
v 10.757579 4.960198 -3.559082
v 10.969923 4.747854 -3.559082
v -10.757579 4.960198 -4.252930
v -10.969923 4.747854 -4.252930
v 10.969923 4.747854 -4.252930
v 10.757579 4.960198 -4.252930
v -9.127544 1.389142 3.673918
v 8.778169 1.390489 3.673918
v 9.608437 1.390279 3.673918
v -9.741307 1.387586 3.673918
v 9.608435 4.535467 4.066072
v 9.744772 4.535467 4.202409
v 9.608435 4.535467 4.338746
v 9.472098 4.535467 4.202409
v 9.472100 1.390279 4.202409
v 9.608437 1.390279 4.066072
v 8.778169 -0.105216 4.066072
v 8.914506 0.031121 4.202409
v 9.472098 0.031121 4.202409
v 9.608435 -0.105216 4.066072
v -9.604970 4.535467 4.202409
v -9.741307 4.535467 4.338746
v -9.877645 4.535467 4.202409
v -9.741307 4.535467 4.066072
v -9.741307 1.387586 4.066072
v -9.604970 1.387586 4.202409
v -9.741307 -0.105216 4.066072
v -9.604970 0.031121 4.202409
v -9.263879 0.031121 4.202409
v -9.127542 -0.105216 4.066072
v -9.127544 1.389142 4.066073
v -9.263881 1.525469 4.202410
v 8.778169 1.390489 4.066073
v 8.914506 1.526836 4.202410
vt 0.016870 0.966675
vt 0.061728 0.975325
vt 0.983204 0.630910
vt 0.016891 0.929708
vt 0.983084 0.663426
vt 0.079650 0.975298
vt 0.603191 0.975542
vt 0.690143 0.964644
vt 0.689621 0.919797
vt 0.627475 0.975553
vt 0.667287 0.975555
vt 0.676074 0.930098
vt 0.627625 0.635933
vt 0.627653 0.601759
vt 0.631645 0.597776
vt 0.676173 0.682885
vt 0.676186 0.644747
vt 0.603347 0.635917
vt 0.603365 0.597755
vt 0.722884 0.030024
vt 0.079820 0.635695
vt 0.079831 0.597538
vt 0.061880 0.635700
vt 0.061872 0.601546
vt 0.037620 0.032427
vt 0.025963 0.597582
vt 0.057884 0.597568
vt 0.025985 0.635708
vt 0.017169 0.698034
vt 0.057115 0.032427
vt 0.044047 0.032427
vt 0.079796 0.698079
vt 0.061857 0.698067
vt 0.061866 0.682620
vt 0.079802 0.682629
vt 0.603317 0.698310
vt 0.603324 0.682858
vt 0.627590 0.698320
vt 0.627597 0.682869
vt 0.689446 0.881204
vt 0.676084 0.909816
vt 0.947414 0.834103
vt 0.947528 0.964958
vt 0.947520 0.918906
vt 0.947503 0.880362
vt 0.982670 0.701940
vt 0.689223 0.835001
vt 0.690938 0.699034
vt 0.726655 0.626924
vt 0.726115 0.660859
vt 0.725553 0.699363
vt 0.982280 0.736003
vt 0.017013 0.909464
vt 0.079667 0.929828
vt 0.061707 0.929815
vt 0.061724 0.909518
vt 0.079676 0.909537
vt 0.603212 0.930075
vt 0.603221 0.909788
vt 0.627488 0.930084
vt 0.627496 0.909797
vt 0.702985 0.030828
vt 0.676175 0.698338
vt 0.703523 0.138203
vt 0.684839 0.578972
vt 0.077607 0.137400
vt 0.789063 0.339588
vt 0.023422 0.644471
vt 0.032189 0.650679
vt 0.032169 0.682602
vt 0.023396 0.682595
vt 0.061880 0.641906
vt 0.061879 0.650683
vt 0.079818 0.641904
vt 0.079815 0.650683
vt 0.031948 0.960380
vt 0.025752 0.969185
vt 0.023132 0.929740
vt 0.031946 0.929777
vt 0.061708 0.960327
vt 0.061717 0.969112
vt 0.079656 0.960308
vt 0.079652 0.969088
vt 0.032154 0.698045
vt 0.023377 0.698038
vt 0.667421 0.642172
vt 0.661204 0.650945
vt 0.627614 0.650921
vt 0.627621 0.642142
vt 0.669966 0.682884
vt 0.661189 0.682882
vt 0.669966 0.698336
vt 0.661186 0.698332
vt 0.603344 0.642127
vt 0.603340 0.650907
vt 0.603198 0.960551
vt 0.603194 0.969332
vt 0.627478 0.960560
vt 0.627476 0.969342
vt 0.669858 0.966775
vt 0.661080 0.960565
vt 0.661086 0.930094
vt 0.669865 0.930096
vt 0.032001 0.909483
vt 0.023221 0.909472
vt 0.669874 0.909814
vt 0.661094 0.909810
vt 0.887677 0.402541
vt 0.737118 0.350104
vt 0.978794 0.152918
vt 0.845788 0.096435
vt 0.716298 0.030301
vt 0.723699 0.138776
vt 0.841942 0.578580
vt 0.818924 0.418760
vt 0.834885 0.396022
vt 0.730582 0.402882
vt 0.753306 0.418906
vt 0.753695 0.594851
vt 0.675310 0.150465
vt 0.044094 0.137424
vt 0.862362 0.339740
vt 0.838588 0.152627
vt 0.862723 0.169766
vt 0.922589 0.145729
vt 0.905454 0.169863
vt 0.929265 0.340076
vt 0.073061 0.156920
vt 0.065858 0.597555
vt 0.061866 0.593585
vt 0.627663 0.593788
vt 0.623668 0.597768
vt 0.675316 0.257323
vt 0.079856 0.370649
vt 0.061907 0.370647
vt 0.627768 0.370827
vt 0.603487 0.370815
vt 0.079861 0.350358
vt 0.061907 0.350358
vt 0.627780 0.350538
vt 0.603495 0.350524
vt 0.077539 0.032395
vt 0.079806 0.582147
vt 0.061863 0.582140
vt 0.675138 0.031798
vt 0.603402 0.582321
vt 0.627676 0.582329
vt 0.021711 0.032429
vt 0.725161 0.733376
vt 0.724735 0.771826
vt 0.691570 0.660196
vt 0.981877 0.774459
vt 0.986356 0.880424
vt 0.947296 0.795524
vt 0.986274 0.834028
vt 0.689097 0.796388
vt 0.667428 0.635965
vt 0.669980 0.644745
vt 0.667624 0.313871
vt 0.676067 0.966775
vt 0.667288 0.969345
vt 0.025968 0.313663
vt 0.025766 0.975402
vt 0.023122 0.966657
vt 0.025986 0.641910
vt 0.017219 0.644466
vt 0.025980 0.370644
vt 0.025947 0.582135
vt 0.667581 0.370848
vt 0.667484 0.582350
vt 0.025975 0.350359
vt 0.667596 0.350563
vt 0.017191 0.682589
vt 0.667467 0.597805
vt 0.603508 0.313833
vt 0.627801 0.313842
vt 0.061911 0.313661
vt 0.079871 0.313666
vt 0.675308 0.137376
vt 0.730979 0.578883
vt 0.077610 0.150485
vt 0.712154 0.339622
vt 0.037664 0.137427
vt 0.905068 0.357108
vt 0.057160 0.137426
vt 0.838200 0.339689
vt 0.679862 0.156900
vt 0.819263 0.578668
vt 0.717021 0.138586
vt 0.888092 0.578512
vt 0.026297 0.132827
vt 0.077631 0.257384
vt 0.750943 0.029368
vt 0.743147 0.134587
vt 0.834805 0.349887
vt 0.841580 0.402653
vt 0.737223 0.396235
vt 0.985382 0.402344
vt 0.684452 0.403000
vt 0.985764 0.578310
vt 0.712546 0.152367
vt 0.922696 0.096595
vt 0.929659 0.152833
vt 0.845685 0.145573
vt 0.789455 0.152529
vt 0.978399 0.340178
vn -0.000000 -1.000000 0.000000
vn 0.000000 -1.000000 0.000000
vn 0.000000 -1.000000 0.000000
vn 0.000000 -1.000000 0.000000
vn -0.000000 -1.000000 0.000000
vn 0.000000 -1.000000 0.000000
vn -0.000000 -1.000000 0.000000
vn -0.000000 -1.000000 0.000000
vn 0.000000 -1.000000 0.000000
vn 0.000000 -1.000000 0.000000
vn 0.000000 -1.000000 0.000000
vn 0.000000 -1.000000 0.000000
vn -0.000000 -1.000000 0.000000
vn -0.000000 -1.000000 0.000000
vn -0.000000 -1.000000 0.000000
vn -0.000000 -1.000000 0.000000
vn -0.000000 -1.000000 0.000000
vn -0.000000 -1.000000 -0.000001
vn -0.000000 -1.000000 -0.000001
vn -0.000000 -1.000000 0.000000
vn 0.000000 -1.000000 -0.000001
vn 0.000000 -1.000000 -0.000001
vn 0.000000 -1.000000 -0.000000
vn 0.000000 -1.000000 -0.000000
vn 0.000001 -1.000000 -0.000000
vn -0.000000 -1.000000 -0.000001
vn -0.000000 -1.000000 -0.000001
vn -0.000000 -1.000000 -0.000000
vn 0.000000 -1.000000 -0.000000
vn 0.000000 -1.000000 -0.000000
vn -0.000000 -1.000000 -0.000002
vn 0.000000 1.000000 0.000000
vn 0.000000 1.000000 0.000000
vn 0.000000 1.000000 0.000000
vn 0.000000 1.000000 0.000000
vn 0.000000 1.000000 0.000000
vn 0.000000 1.000000 0.000000
vn 0.000000 1.000000 0.000000
vn 0.000000 1.000000 0.000000
vn 0.000000 1.000000 0.000000
vn -0.000001 1.000000 0.000000
vn -0.000000 1.000000 0.000000
vn -0.000000 1.000000 0.000000
vn 0.000000 -1.000000 -0.000000
vn 0.000000 -1.000000 -0.000000
vn 0.000000 -1.000000 0.000000
vn 0.000000 -1.000000 0.000000
vn 0.000000 -1.000000 0.000000
vn 0.000000 -1.000000 0.000000
vn -0.000000 -1.000000 -0.000000
vn -0.000000 -1.000000 -0.000000
vn -0.000001 -1.000000 0.000000
vn -0.000001 -1.000000 0.000000
vn -0.000001 -1.000000 0.000000
vn -0.000001 -1.000000 0.000000
vn 0.000000 -1.000000 0.000000
vn 0.000001 -1.000000 0.000000
vn 0.000000 1.000000 0.000000
vn 0.000000 1.000000 0.000000
vn 0.000000 1.000000 0.000000
vn 0.000000 1.000000 0.000000
vn -0.000000 1.000000 -0.000000
vn -0.000000 1.000000 -0.000000
vn 0.000000 1.000000 -0.000000
vn 0.000000 1.000000 -0.000000
vn 0.000000 -1.000000 0.000000
vn 0.000000 -1.000000 0.000000
vn -0.000000 -1.000000 -0.000000
vn -0.000000 -1.000000 -0.000000
vn 0.000000 1.000000 0.000000
vn 0.000000 1.000000 0.000000
vn 0.000000 1.000000 0.000000
vn 0.000000 1.000000 0.000000
vn 0.000000 0.000000 -1.000000
vn 0.000000 0.000000 -1.000000
vn -0.000000 0.000000 -1.000000
vn -0.000000 0.000000 -1.000000
vn 0.000001 0.000000 -1.000000
vn 0.000001 0.000000 -1.000000
vn 0.000000 -0.000000 -1.000000
vn 0.000000 -0.000000 -1.000000
vn -1.000000 -0.000000 0.000000
vn -1.000000 -0.000000 0.000000
vn -1.000000 -0.000000 0.000000
vn -1.000000 -0.000000 0.000000
vn 0.000000 0.000000 -1.000000
vn 0.000000 0.000000 -1.000000
vn 0.000000 0.000000 -1.000000
vn 0.000000 0.000000 -1.000000
vn 1.000000 -0.000000 0.000000
vn 1.000000 -0.000000 0.000000
vn 1.000000 -0.000000 0.000000
vn 1.000000 -0.000000 0.000000
vn 0.000000 -0.000000 1.000000
vn 0.000000 -0.000000 1.000000
vn 0.000000 -0.000000 1.000000
vn 0.000000 -0.000000 1.000000
vn -1.000000 0.000000 0.000000
vn -1.000000 0.000000 0.000000
vn -1.000000 0.000000 0.000000
vn -1.000000 0.000000 0.000000
vn -0.000004 0.000000 -1.000000
vn -0.000004 0.000000 -1.000000
vn -0.000004 0.000000 -1.000000
vn -0.000004 0.000000 -1.000000
vn 1.000000 -0.000000 0.000000
vn 1.000000 -0.000000 0.000000
vn 1.000000 -0.000000 0.000000
vn 1.000000 -0.000000 0.000000
vn 0.000004 -0.000000 1.000000
vn 0.000004 -0.000000 1.000000
vn 0.000004 -0.000000 1.000000
vn 0.000004 -0.000000 1.000000
vn -0.707107 0.707107 0.000000
vn -0.707107 0.707107 0.000000
vn -0.707107 0.707107 0.000000
vn -0.707107 0.707107 0.000000
vn 0.000000 0.707107 0.707107
vn 0.000000 0.707107 0.707107
vn 0.000000 0.707107 0.707107
vn 0.000000 0.707107 0.707107
vn 0.000000 0.707107 0.707107
vn 0.000000 0.707107 0.707107
vn -0.707107 0.707107 0.000000
vn -0.707107 0.707106 0.000000
vn -0.707107 0.707107 0.000000
vn -0.707107 0.707107 0.000000
vn 0.000000 0.707107 -0.707107
vn 0.000000 0.707107 -0.707107
vn 0.000000 0.707107 -0.707107
vn 0.000000 0.707107 -0.707107
vn 0.000000 0.707107 -0.707107
vn 0.000000 0.707107 -0.707107
vn -0.707107 0.707106 0.000000
vn -0.707107 0.707106 0.000000
vn 0.000000 0.707107 0.707107
vn 0.000000 0.707107 0.707107
vn 0.000000 0.707107 0.707107
vn 0.000000 0.707107 0.707107
vn 0.707107 0.707107 0.000000
vn 0.707107 0.707107 0.000000
vn 0.707107 0.707107 0.000000
vn 0.707107 0.707107 0.000000
vn 0.707107 0.707106 0.000000
vn 0.707107 0.707106 0.000000
vn 0.000000 0.707107 0.707107
vn 0.000000 0.707107 0.707107
vn 0.000000 0.707107 -0.707107
vn 0.000000 0.707107 -0.707107
vn 0.000000 0.707107 -0.707107
vn 0.000000 0.707107 -0.707107
vn 0.707107 0.707106 0.000000
vn 0.707107 0.707107 0.000000
vn 0.707107 0.707107 0.000000
vn 0.707107 0.707107 0.000000
vn 0.000000 0.707107 -0.707107
vn 0.000000 0.707107 -0.707107
vn -0.707107 0.707106 0.000000
vn -0.707107 0.707106 0.000000
vn 0.707107 0.707106 0.000000
vn 0.707107 0.707106 0.000000
vn 0.000000 0.000000 1.000000
vn 0.000000 0.000000 1.000000
vn 0.000000 0.000000 1.000000
vn 0.000000 0.000000 1.000000
vn 0.000000 1.000000 0.000000
vn 0.000000 1.000000 0.000000
vn 0.000000 1.000000 0.000000
vn 0.000000 0.000000 -1.000000
vn 0.000000 0.000000 -1.000000
vn 0.000000 0.000000 -1.000000
vn 0.000000 0.000000 -1.000000
vn 1.000000 0.000000 0.000000
vn 1.000000 0.000000 0.000000
vn 1.000000 0.000000 0.000000
vn 1.000000 0.000000 0.000000
vn -1.000000 0.000000 0.000000
vn -1.000000 0.000000 0.000000
vn -1.000000 0.000000 0.000000
vn -1.000000 0.000000 0.000000
vn 0.000000 0.000000 1.000000
vn 0.000000 0.000000 1.000000
vn 0.000000 0.000000 1.000000
vn 0.000000 0.000000 1.000000
vn 0.000000 1.000000 0.000000
vn 0.000000 1.000000 0.000000
vn 0.000000 0.000000 -1.000000
vn 0.000000 0.000000 -1.000000
vn 0.000000 0.000000 -1.000000
vn 0.000000 0.000000 -1.000000
vn 0.000000 0.000000 1.000000
vn 0.000000 0.000000 1.000000
vn 0.000000 0.000000 1.000000
vn 0.000000 0.000000 1.000000
vn 0.000000 1.000000 0.000000
vn 0.000000 1.000000 -0.000000
vn 0.000000 1.000000 0.000000
vn 0.000000 0.000000 -1.000000
vn 0.000000 0.000000 -1.000000
vn 0.000000 0.000000 -1.000000
vn 0.000000 0.000000 -1.000000
vn -1.000000 0.000000 0.000000
vn -1.000000 0.000000 0.000000
vn -1.000000 0.000000 0.000000
vn -1.000000 0.000000 0.000000
vn 0.000000 1.000000 0.000000
vn 0.000000 1.000000 0.000000
vn 0.000000 1.000000 0.000000
vn 0.000000 1.000000 0.000000
vn 0.000000 1.000000 0.000000
vn 0.000000 1.000000 0.000000
vn 0.000000 1.000000 0.000000
vn 0.000000 1.000000 0.000000
vn 1.000000 0.000000 0.000000
vn 1.000000 0.000000 0.000000
vn 1.000000 0.000000 0.000000
vn 1.000000 0.000000 0.000000
vn -1.000000 0.000000 0.000000
vn -1.000000 0.000000 0.000000
vn 0.000000 1.000000 0.000000
vn 0.000000 1.000000 0.000000
vn 1.000000 0.000000 0.000000
vn 1.000000 0.000000 0.000000
vn -1.000000 0.000000 0.000000
vn -1.000000 0.000000 0.000000
vn 0.000000 1.000000 0.000000
vn 0.000000 1.000000 -0.000000
vn 1.000000 0.000000 0.000000
vn 1.000000 0.000000 0.000000
vn 0.000000 0.000000 -1.000000
vn 0.000000 0.000000 -1.000000
vn 0.000000 0.000000 -1.000000
vn 0.000000 0.000000 -1.000000
vn -0.000000 0.000000 -1.000000
vn -0.000000 0.000000 -1.000000
vn 0.000000 -0.000000 -1.000000
vn 0.000000 -0.000000 -1.000000
vn 0.000000 -1.000000 0.000000
vn 0.707106 0.000001 0.707108
vn 0.707106 0.000001 0.707108
vn 0.707106 0.000000 0.707108
vn 0.707106 0.000000 0.707108
vn 0.707106 -0.000001 0.707108
vn 0.707106 -0.000001 0.707108
vn -0.707105 -0.000000 0.707108
vn -0.707105 -0.000000 0.707108
vn -0.707105 -0.000000 0.707108
vn -0.707105 -0.000000 0.707108
vn 0.000000 -0.707107 0.707106
vn 0.000000 -0.707107 0.707107
vn 0.000000 -0.707107 0.707107
vn 0.000000 -0.707107 0.707106
vn -0.707107 0.000000 0.707107
vn -0.707107 0.000000 0.707107
vn -0.707107 0.000000 0.707107
vn -0.707107 0.000000 0.707107
vn -0.707106 0.000000 0.707107
vn -0.707107 0.000000 0.707107
vn 0.000000 -0.707107 0.707106
vn 0.000000 -0.707107 0.707106
vn 0.000000 -0.707107 0.707106
vn 0.000000 -0.707107 0.707106
vn 0.707107 0.000001 0.707107
vn 0.707106 0.000001 0.707107
vn 0.707106 0.000001 0.707107
vn 0.707106 0.000001 0.707107
vn 0.000053 -0.707107 0.707107
vn 0.000053 -0.707107 0.707107
vn 0.000053 -0.707107 0.707107
vn 0.000053 -0.707107 0.707107
vn -0.000000 -1.000000 -0.000001
vn -0.000000 -1.000000 -0.000001
vn -0.000000 -1.000000 -0.000001
vn -0.000000 -1.000000 -0.000001
vn 0.000000 -1.000000 -0.000001
vn 0.000000 -1.000000 -0.000001
vn 0.000000 -1.000000 -0.000001
vn 0.000000 -1.000000 -0.000001
vn 1.000000 0.000001 0.000000
vn 1.000000 0.000001 0.000000
vn 1.000000 0.000000 0.000000
vn 1.000000 0.000000 0.000000
vn 0.000001 -0.000000 1.000000
vn 0.000002 -0.000000 1.000000
vn 0.000000 -0.000000 1.000000
vn 0.000000 -0.000000 1.000000
vn -1.000000 0.000000 -0.000002
vn -1.000000 0.000000 -0.000002
vn -1.000000 0.000000 -0.000002
vn -1.000000 0.000000 -0.000002
vn -0.000000 -0.000000 1.000000
vn -0.000003 0.000000 1.000000
vn -0.000001 -0.000000 1.000000
vn -0.000000 -0.000000 1.000000
vn 0.000075 -1.000000 0.000000
vn 0.000075 -1.000000 0.000000
vn 0.000075 -1.000000 0.000000
vn 0.000075 -1.000000 0.000000
vn 0.000001 -0.000000 1.000000
vn 0.000001 -0.000000 1.000000
vn 1.000000 -0.000001 0.000000
vn 1.000000 -0.000001 0.000000
vn -1.000000 -0.000000 0.000000
vn -1.000000 -0.000000 0.000000
vn -1.000000 -0.000000 0.000000
vn -1.000000 -0.000000 0.000000
vn 1.000000 0.000001 0.000002
vn 1.000000 0.000001 0.000002
vn 1.000000 0.000001 0.000002
vn 1.000000 0.000001 0.000002
vn -1.000000 0.000000 -0.000002
vn -1.000000 0.000000 -0.000002
vn -0.000001 -0.000000 1.000000
vn -0.000001 -0.000000 1.000000
s 1
g pCube1
usemtl initialShadingGroup
f 3/162/1 8/177/2 35/139/3 36/171/4
f 34/138/5 6/178/6 12/175/7 33/141/8
f 35/139/3 8/177/2 6/178/6 34/138/5
f 32/140/9 10/176/10 4/159/11 31/172/12
f 33/141/8 12/175/7 10/176/10 32/140/9
f 9/13/13 109/14/14 108/15/15 13/174/16 2/157/17
f 11/18/18 14/19/19 110/132/20 109/14/14 9/13/13
f 5/21/21 15/22/22 14/19/19 11/18/18
f 7/23/23 118/24/24 117/129/25 15/22/22 5/21/21
f 16/26/26 119/27/27 118/24/24 7/23/23 1/28/28
f 26/168/29 25/144/30 120/130/31 119/27/27 16/26/26
s 3
f 28/32/32 27/33/33 17/34/34 18/35/35
s off
f 29/36/36 28/32/37 18/35/38 19/37/39
s 3
f 30/38/40 29/36/41 19/37/42 20/39/43
s 1
f 42/136/44 32/140/9 31/172/12 41/169/45
s off
f 56/42/46 55/155/47 57/153/48 58/45/49
s 1
f 44/134/50 34/138/5 33/141/8 43/137/51
s off
f 60/48/52 59/151/53 61/50/54 62/51/55
s 1
f 36/171/4 35/139/3 45/135/56 46/167/57
s 3
f 38/54/58 37/55/59 47/56/60 48/57/61
f 39/58/62 38/54/58 48/57/61 49/59/63
f 40/60/64 39/58/62 49/59/63 50/61/65
s 1
f 22/147/66 42/136/44 41/169/45 21/170/67
f 23/146/68 43/137/51 42/136/44 22/147/66
f 24/143/69 44/134/50 43/137/51 23/146/68
f 25/144/30 45/135/56 44/134/50 24/143/69
f 46/167/57 45/135/56 25/144/30 26/168/29
s 3
f 48/57/61 47/56/60 27/33/33 28/32/32
s off
f 49/59/70 48/57/71 28/32/72 29/36/73
s 3
f 50/61/65 49/59/63 29/36/41 30/38/40
s 6
f 23/145/74 22/62/75 105/64/76 104/179/77
s 7
f 25/30/78 24/142/79 103/66/80 106/185/81
s off
f 43/47/82 33/156/83 55/154/84 56/42/85
f 33/8/86 32/9/87 57/44/88 55/43/89
f 32/9/90 42/40/91 58/45/92 57/44/93
f 42/40/94 43/47/95 56/42/96 58/45/97
f 45/52/98 35/152/99 59/150/100 60/149/101
f 35/3/102 34/5/103 61/50/104 59/49/105
f 34/5/106 44/46/107 62/51/108 61/50/109
f 44/46/110 45/52/111 60/149/112 62/51/113
s 8
f 63/68/114 64/69/115 72/70/116 71/71/117
s 9
f 64/69/118 63/165/119 65/72/120 66/73/121
f 66/73/121 65/72/120 77/74/122 78/75/123
s 8
f 67/76/124 68/164/125 100/78/126 99/79/127
s 11
f 68/77/128 67/76/129 70/80/130 69/81/131
f 69/81/131 70/80/130 82/82/132 81/83/133
s 8
f 71/71/117 72/70/116 92/84/134 91/85/135
s 9
f 73/86/136 74/87/137 86/88/138 85/89/139
s 13
f 74/87/140 73/158/141 76/90/142 75/91/143
f 75/91/143 76/90/142 94/92/144 93/93/145
s 9
f 78/75/123 77/74/122 79/94/146 80/95/147
f 80/95/147 79/94/146 85/89/139 86/88/138
s 11
f 81/83/133 82/82/132 84/96/148 83/97/149
f 83/97/149 84/96/148 90/98/150 89/99/151
s 13
f 87/100/152 88/101/153 102/102/154 101/103/155
s 11
f 88/101/156 87/161/157 89/99/151 90/98/150
s 8
f 91/85/135 92/84/134 96/104/158 95/105/159
s 13
f 93/93/145 94/92/144 98/106/160 97/107/161
s 8
f 95/105/159 96/104/158 99/79/127 100/78/126
s 13
f 97/107/161 98/106/160 101/103/155 102/102/154
s 15
f 1/28/162 7/23/163 65/72/164 63/165/165
s 3
f 99/79/166 37/55/59 70/80/167 67/76/168
s 16
f 68/77/169 69/81/170 8/2/171 3/163/172
s 17
f 101/103/173 31/12/174 4/160/175 87/100/176
s 18
f 3/1/177 36/4/178 100/78/179 68/164/180
s 15
f 5/21/181 11/18/182 79/94/183 77/74/184
s 3
f 82/82/185 38/54/58 39/58/62 84/96/186
s 16
f 6/6/187 81/83/188 83/97/189 12/7/190
s 15
f 7/23/163 5/21/181 77/74/184 65/72/164
s 3
f 70/80/167 37/55/59 38/54/58 82/82/185
s 16
f 8/2/171 69/81/170 81/83/188 6/6/187
s 15
f 9/13/191 2/157/192 73/86/193 85/89/194
s 3
f 90/98/195 40/60/64 102/102/196 88/101/197
s 16
f 10/10/198 89/99/199 87/161/200 4/11/201
s 15
f 11/18/182 9/13/191 85/89/194 79/94/183
s 3
f 84/96/186 39/58/62 40/60/64 90/98/195
s 16
f 12/7/190 83/97/189 89/99/199 10/10/198
s 18
f 71/71/202 16/173/203 1/166/204 63/68/205
s 3
f 64/69/206 66/73/207 17/34/34 72/70/208
f 18/35/35 17/34/34 66/73/207 78/75/209
f 19/37/42 18/35/35 78/75/209 80/95/210
f 20/39/43 19/37/42 80/95/210 86/88/211
f 75/91/212 20/39/43 86/88/211 74/87/213
s 17
f 2/17/214 13/16/215 76/90/216 73/158/217
s 18
f 91/85/218 26/29/219 16/173/203 71/71/202
s 3
f 72/70/208 17/34/34 27/33/33 92/84/220
f 93/93/221 30/38/40 20/39/43 75/91/212
s 17
f 76/90/216 13/16/215 21/63/222 94/92/223
s 18
f 100/78/179 36/4/178 46/53/224 95/105/225
s 3
f 96/104/226 47/56/60 37/55/59 99/79/166
f 102/102/196 40/60/64 50/61/65 97/107/227
s 17
f 98/106/228 41/41/229 31/12/174 101/103/173
s 18
f 95/105/225 46/53/224 26/29/219 91/85/218
s 3
f 92/84/220 27/33/33 47/56/60 96/104/226
f 97/107/227 50/61/65 30/38/40 93/93/221
s 17
f 94/92/223 21/63/222 41/41/229 98/106/228
s off
f 24/142/230 23/145/231 104/179/232 103/66/233
s 6
f 104/200/77 105/190/76 52/108/234 51/198/235
s 7
f 106/67/81 103/182/80 54/201/236 53/205/237
s 1
f 108/15/15 107/131/238 22/147/66 21/170/67 13/174/16
s 22
f 107/112/239 110/20/240 111/113/241 112/189/242
f 112/114/242 111/188/241 115/115/243 116/196/244
s off
f 113/117/245 114/118/246 130/119/247 129/180/248
f 114/118/249 113/197/250 116/116/251 115/115/252
s 23
f 117/25/253 120/31/254 121/121/255 122/183/256
f 122/122/256 121/186/255 123/123/257 124/124/258
s off
f 124/124/259 123/204/260 126/125/261 125/126/262
f 125/126/263 126/203/264 127/127/265 128/184/266
f 128/128/267 127/181/268 129/120/269 130/187/270
f 113/197/271 51/109/272 52/195/273 116/116/274
f 123/204/275 53/111/276 54/202/277 126/125/278
s 24
f 22/62/279 107/112/280 112/189/281 105/64/282
s 25
f 111/113/283 110/20/284 14/193/285 130/194/286
s 26
f 121/121/287 120/31/288 25/30/289 106/185/290
s 25
f 15/148/291 117/25/292 122/183/293 128/191/294
s off
f 127/181/295 103/66/296 104/179/297 129/120/298
s 25
f 14/133/285 15/192/291 128/128/294 130/187/286
f 111/188/283 130/119/286 114/118/299 115/115/300
s 24
f 105/190/282 112/114/281 116/196/301 52/108/302
s off
f 129/180/303 104/65/304 51/199/305 113/117/306
f 103/206/307 127/127/308 126/203/309 54/110/310
s 26
f 121/186/287 106/67/290 53/205/311 123/123/312
s 25
f 128/184/294 122/122/293 124/124/313 125/126/314
s 1
f 107/131/238 108/15/15 109/14/14 110/132/20
f 117/129/25 118/24/24 119/27/27 120/130/31
