# This file uses centimeters as units for non-parametric coordinates.

mtllib Scanner Arm.mtl
g default
v -1.032532 6.045133 -1.844125
v -1.173334 6.045133 -1.764223
v -1.112435 6.045133 -1.984929
v -1.253237 6.045133 -1.905027
v -1.032533 7.370176 -1.844126
v -1.173335 7.370176 -1.764224
v -1.112435 7.370176 -1.984929
v -1.253237 7.370176 -1.905027
v -1.102934 6.045133 -1.804175
v -1.182836 6.045133 -1.944977
v -1.102934 7.370176 -1.804175
v -1.182836 7.370176 -1.944978
v -1.124734 7.509768 -1.842591
v -1.195135 7.509767 -1.802640
v -1.161036 7.509768 -1.906562
v -1.231437 7.509767 -1.866611
vt 0.169168 0.263968
vt 0.133525 0.223390
vt 0.788150 0.887483
vt 0.747936 0.922875
vt 0.948931 0.745894
vt 0.989113 0.710488
vt 0.369342 0.088125
vt 0.409524 0.052718
vt 0.250553 0.194498
vt 0.330200 0.124495
vt 0.908750 0.781300
vt 0.828360 0.852094
vt 0.206877 0.105546
vt 0.049920 0.172864
vt 0.283879 0.022511
vt 0.247600 0.069758
vt 0.013049 0.205253
vt 0.208210 0.024942
vt 0.155350 0.135451
vt 0.167489 0.060732
vt 0.052371 0.294676
vt 0.209451 0.228653
vt 0.088014 0.335251
vt 0.944146 0.821500
vt 0.863755 0.892281
vt 0.979535 0.861685
vt 0.667486 0.993680
vt 0.899153 0.932481
vn 0.493543 0.000000 0.869722
vn 0.493543 0.000000 0.869722
vn 0.493543 0.000000 0.869722
vn 0.493543 0.000000 0.869722
vn -0.000000 -1.000000 0.000000
vn -0.000000 -1.000000 0.000000
vn -0.000000 -1.000000 0.000000
vn -0.000000 -1.000000 0.000000
vn -0.493553 -0.000000 -0.869716
vn -0.493553 -0.000000 -0.869716
vn -0.493553 -0.000000 -0.869716
vn -0.493553 -0.000000 -0.869716
vn -0.869719 0.000000 0.493547
vn -0.869719 0.000000 0.493547
vn -0.869719 0.000000 0.493547
vn -0.869719 0.000000 0.493547
vn 0.869719 0.000000 -0.493548
vn 0.869719 0.000000 -0.493548
vn 0.869719 0.000000 -0.493548
vn 0.869719 0.000000 -0.493548
vn 0.000000 1.000000 -0.000000
vn 0.000000 1.000000 -0.000000
vn 0.000000 1.000000 -0.000000
vn 0.000000 1.000000 -0.000000
vn 0.000000 -1.000000 0.000000
vn 0.000000 -1.000000 0.000000
vn 0.000000 -1.000000 0.000000
vn 0.000000 -1.000000 0.000000
vn -0.493319 0.030144 -0.869326
vn -0.493543 -0.000000 -0.869722
vn -0.493543 -0.000000 -0.869722
vn -0.493319 0.030144 -0.869326
vn -0.000003 1.000000 0.000004
vn -0.000003 1.000000 0.000004
vn -0.000003 1.000000 0.000004
vn -0.000003 1.000000 0.000004
vn 0.493553 0.000000 0.869716
vn 0.493328 0.030145 0.869321
vn 0.493328 0.030145 0.869321
vn 0.493553 0.000000 0.869716
vn 0.470551 0.301684 0.829197
vn 0.470551 0.301684 0.829197
vn 0.869719 0.000002 -0.493548
vn 0.869719 0.000002 -0.493548
vn 0.869719 0.000002 -0.493548
vn 0.869719 0.000002 -0.493548
vn -0.470553 0.301684 -0.829197
vn -0.470553 0.301684 -0.829197
vn -0.869719 -0.000000 0.493547
vn -0.869719 -0.000000 0.493547
s off
g Scanner_Arm_1
usemtl initialShadingGroup
f 5/1/1 11/22/2 9/3/3 1/4/4
f 1/28/5 9/25/6 10/24/7 3/26/8
f 3/6/9 10/5/10 12/7/11 7/8/12
s 1
f 6/9/13 8/10/14 4/11/15 2/12/16
s off
f 7/23/17 5/1/18 1/4/19 3/27/20
f 12/21/21 11/2/22 5/1/23 7/23/24
f 10/24/25 9/25/26 2/12/27 4/11/28
s 2
f 12/7/29 10/5/30 4/11/31 8/10/32
s off
f 14/13/33 13/20/34 15/18/35 16/16/36
s 3
f 9/3/37 11/22/38 6/9/39 2/12/40
f 6/9/39 11/22/38 13/19/41 14/13/42
s off
f 11/2/43 12/21/44 15/17/45 13/14/46
s 2
f 12/7/29 8/10/32 16/16/47 15/15/48
s 1
f 8/10/14 6/9/13 14/13/49 16/16/50
