# This file uses centimeters as units for non-parametric coordinates.

mtllib Scanner Dish.mtl
g default
v -0.657386 9.054638 -2.302156
v -0.819178 9.147561 -2.395400
v -1.010491 9.221305 -2.433695
v -1.212598 9.268651 -2.413294
v -1.405717 9.284966 -2.336193
v -1.570942 9.268651 -2.209941
v -1.692101 9.221305 -2.046894
v -1.757335 9.147561 -1.863015
v -1.760256 9.054638 -1.676300
v -1.700579 8.951632 -1.505029
v -1.584147 8.848627 -1.365965
v -1.422356 8.755704 -1.272722
v -1.231043 8.681960 -1.234427
v -1.028935 8.634614 -1.254828
v -0.835817 8.618299 -1.331928
v -0.670591 8.634614 -1.458181
v -0.549432 8.681960 -1.621227
v -0.484199 8.755704 -1.805107
v -0.481278 8.848627 -1.991821
v -0.540954 8.951633 -2.163092
v -0.330776 9.322175 -2.467682
v -0.585899 9.468702 -2.614714
v -0.887574 9.584986 -2.675100
v -1.206270 9.659645 -2.642930
v -1.510791 9.685370 -2.521353
v -1.771330 9.659645 -2.322270
v -1.962381 9.584986 -2.065168
v -2.065245 9.468701 -1.775215
v -2.069851 9.322175 -1.480792
v -1.975750 9.159749 -1.210720
v -1.792152 8.997323 -0.991436
v -1.537029 8.850797 -0.844404
v -1.235354 8.734512 -0.784018
v -0.916658 8.659853 -0.816187
v -0.612136 8.634128 -0.937764
v -0.351598 8.659853 -1.136847
v -0.160547 8.734512 -1.393949
v -0.057683 8.850796 -1.683903
v -0.053077 8.997323 -1.978325
v -0.147178 9.159749 -2.248397
v -0.351747 9.365656 -2.405893
v -0.594434 9.505040 -2.545758
v -0.881404 9.615656 -2.603201
v -1.184565 9.686676 -2.572599
v -1.474243 9.711147 -2.456949
v -1.722082 9.686676 -2.267570
v -1.903820 9.615656 -2.023000
v -2.001669 9.505040 -1.747180
v -2.006051 9.365656 -1.467109
v -1.916537 9.211147 -1.210202
v -1.741888 9.056639 -1.001607
v -1.499201 8.917254 -0.861742
v -1.212232 8.806639 -0.804299
v -0.909071 8.735619 -0.834901
v -0.619393 8.711147 -0.950551
v -0.371555 8.735619 -1.139930
v -0.189816 8.806639 -1.384500
v -0.091967 8.917255 -1.660319
v -0.087585 9.056639 -1.940390
v -0.177099 9.211147 -2.197298
v -0.631317 9.146125 -2.256218
v -0.793108 9.239048 -2.349461
v -0.984421 9.312792 -2.387756
v -1.186529 9.360138 -2.367355
v -1.379648 9.376453 -2.290255
v -1.544873 9.360138 -2.164002
v -1.666032 9.312792 -2.000956
v -1.731265 9.239048 -1.817076
v -1.734186 9.146125 -1.630362
v -1.674510 9.043119 -1.459090
v -1.558078 8.940114 -1.320027
v -1.396286 8.847191 -1.226784
v -1.204973 8.773447 -1.188488
v -1.002866 8.726100 -1.208889
v -0.809748 8.709786 -1.285990
v -0.644522 8.726100 -1.412242
v -0.523363 8.773447 -1.575289
v -0.458130 8.847191 -1.759169
v -0.455209 8.940114 -1.945883
v -0.514885 9.043119 -2.117154
v -0.892756 8.990222 -2.074593
v -0.973652 9.036683 -2.121214
v -1.069308 9.073555 -2.140362
v -1.170362 9.097228 -2.130162
v -1.266921 9.105386 -2.091611
v -1.349534 9.097228 -2.028485
v -1.410114 9.073555 -1.946962
v -1.442730 9.036683 -1.855022
v -1.444191 8.990222 -1.761665
v -1.414353 8.938719 -1.676029
v -1.356136 8.887216 -1.606497
v -1.275241 8.840755 -1.559876
v -1.179584 8.803883 -1.540728
v -1.078531 8.780210 -1.550929
v -0.981971 8.772052 -1.589479
v -0.899359 8.780210 -1.652605
v -0.838779 8.803883 -1.734128
v -0.806163 8.840755 -1.826068
v -0.804702 8.887216 -1.919425
v -0.834540 8.938719 -2.005061
v -1.163654 8.801125 -1.909636
v -1.137403 8.893250 -1.863377
vt 0.725131 0.542075
vt 0.774613 0.556732
vt 0.703097 0.706371
vt 0.670616 0.543816
vt 0.622179 0.561595
vt 0.581628 0.593643
vt 0.552999 0.636641
vt 0.539067 0.686340
vt 0.541114 0.737842
vt 0.558898 0.786152
vt 0.590650 0.826622
vt 0.633263 0.855332
vt 0.682618 0.869547
vt 0.733952 0.867915
vt 0.782297 0.850574
vt 0.822992 0.819188
vt 0.852098 0.776790
vt 0.866759 0.727439
vt 0.865509 0.675903
vt 0.848433 0.627205
vt 0.817124 0.586108
vt 0.360341 0.581558
vt 0.445365 0.544799
vt 0.261136 0.584552
vt 0.174630 0.556150
vt 0.101592 0.504137
vt 0.048185 0.433106
vt 0.019061 0.349760
vt 0.016662 0.261901
vt 0.041015 0.177745
vt 0.089666 0.105138
vt 0.157993 0.050825
vt 0.239593 0.019938
vt 0.326747 0.015319
vt 0.411284 0.037458
vt 0.485163 0.084413
vt 0.541403 0.151829
vt 0.574558 0.233492
vt 0.581251 0.321792
vt 0.560528 0.408446
vt 0.513929 0.485238
vt 0.354728 0.559570
vt 0.433934 0.526515
vt 0.264991 0.562674
vt 0.184177 0.537155
vt 0.116217 0.489086
vt 0.066546 0.423281
vt 0.039427 0.346002
vt 0.037125 0.264498
vt 0.059659 0.186424
vt 0.104759 0.119052
vt 0.168130 0.068663
vt 0.243819 0.040006
vt 0.324661 0.035736
vt 0.403063 0.056304
vt 0.471564 0.099890
vt 0.523673 0.162458
vt 0.554341 0.238216
vt 0.560442 0.320113
vt 0.541092 0.400429
vt 0.497726 0.471529
vt 0.332148 0.459084
vt 0.381526 0.439769
vt 0.278695 0.461426
vt 0.227962 0.446790
vt 0.184808 0.417351
vt 0.153107 0.376331
vt 0.135647 0.327824
vt 0.133893 0.276512
vt 0.147884 0.227271
vt 0.176194 0.184747
vt 0.216094 0.152946
vt 0.263779 0.134869
vt 0.314712 0.132227
vt 0.364067 0.145293
vt 0.407130 0.172872
vt 0.439763 0.212397
vt 0.458781 0.260163
vt 0.462232 0.311656
vt 0.449617 0.361957
vt 0.421910 0.406153
vt 0.313888 0.373329
vt 0.337305 0.364360
vt 0.288808 0.374521
vt 0.264668 0.367841
vt 0.243886 0.354034
vt 0.228467 0.334530
vt 0.219855 0.311290
vt 0.218832 0.286591
vt 0.225444 0.262821
vt 0.239026 0.242263
vt 0.258254 0.226883
vt 0.281269 0.218154
vt 0.305858 0.216902
vt 0.329657 0.223257
vt 0.350373 0.236630
vt 0.365994 0.255752
vt 0.374984 0.278797
vt 0.376439 0.303545
vt 0.370155 0.327595
vt 0.356689 0.348573
vt 0.297492 0.295384
vt 0.898014 0.501315
vt 0.825069 0.450448
vt 0.951302 0.571829
vt 0.980143 0.655058
vt 0.982051 0.742904
vt 0.956843 0.826868
vt 0.907188 0.898958
vt 0.837888 0.952276
vt 0.755614 0.981728
vt 0.668256 0.984517
vt 0.584269 0.960377
vt 0.511706 0.911592
vt 0.457548 0.842819
vt 0.427035 0.760635
vt 0.423333 0.672849
vt 0.446804 0.587948
vt 0.495483 0.514174
vt 0.565032 0.458758
vt 0.648982 0.427719
vt 0.739311 0.424832
vn -0.020841 -0.646226 -0.762861
vn 0.086667 -0.707972 -0.700903
vn -0.246774 -0.866026 -0.434859
vn -0.147964 -0.597225 -0.788308
vn -0.282260 -0.565764 -0.774752
vn -0.410583 -0.554923 -0.723520
vn -0.520372 -0.565764 -0.639628
vn -0.600880 -0.597225 -0.531287
vn -0.644226 -0.646226 -0.409103
vn -0.646167 -0.707971 -0.285035
vn -0.606513 -0.776417 -0.171229
vn -0.529146 -0.844862 -0.078824
vn -0.421639 -0.906607 -0.016866
vn -0.294516 -0.955608 0.008580
vn -0.160220 -0.987069 -0.004976
vn -0.031896 -0.997910 -0.056207
vn 0.077892 -0.987069 -0.140099
vn 0.158400 -0.955608 -0.248440
vn 0.201746 -0.906607 -0.370625
vn 0.203687 -0.844861 -0.494693
vn 0.164034 -0.776417 -0.608498
vn 0.030452 -0.578689 -0.814980
vn 0.159059 -0.652552 -0.740862
vn -0.121619 -0.520071 -0.845420
vn -0.282271 -0.482436 -0.829204
vn -0.435778 -0.469468 -0.767918
vn -0.567113 -0.482436 -0.667562
vn -0.663421 -0.520071 -0.537959
vn -0.715273 -0.578689 -0.391795
vn -0.717595 -0.652552 -0.243379
vn -0.670159 -0.734429 -0.107238
vn -0.577609 -0.816307 0.003301
vn -0.449004 -0.890170 0.077419
vn -0.296932 -0.948788 0.107859
vn -0.136280 -0.986423 0.091643
vn 0.017227 -0.999391 0.030357
vn 0.148562 -0.986423 -0.069999
vn 0.244870 -0.948788 -0.199602
vn 0.296722 -0.890170 -0.345766
vn 0.299044 -0.816307 -0.494182
vn 0.251609 -0.734429 -0.630323
vn 0.687378 0.682911 -0.247272
vn 0.503685 0.788414 -0.353137
vn 0.503685 0.788413 -0.353137
vn 0.687378 0.682911 -0.247272
vn 0.286474 0.872140 -0.396616
vn 0.286474 0.872140 -0.396616
vn 0.057008 0.925896 -0.373453
vn 0.057009 0.925896 -0.373453
vn -0.162251 0.944419 -0.285915
vn -0.162251 0.944419 -0.285915
vn -0.349843 0.925896 -0.142573
vn -0.349843 0.925896 -0.142572
vn -0.487403 0.872140 0.042545
vn -0.487403 0.872140 0.042545
vn -0.561465 0.788415 0.251315
vn -0.561465 0.788415 0.251316
vn -0.564781 0.682914 0.463304
vn -0.564781 0.682914 0.463304
vn -0.497028 0.565963 0.657760
vn -0.497028 0.565963 0.657761
vn -0.364835 0.449014 0.815648
vn -0.364835 0.449014 0.815648
vn -0.181142 0.343513 0.921513
vn -0.181142 0.343513 0.921513
vn 0.036068 0.259786 0.964992
vn 0.036068 0.259786 0.964992
vn 0.265534 0.206032 0.941830
vn 0.265534 0.206032 0.941830
vn 0.484794 0.187510 0.854292
vn 0.484794 0.187510 0.854292
vn 0.672385 0.206032 0.710950
vn 0.672385 0.206032 0.710950
vn 0.809945 0.259787 0.525833
vn 0.809945 0.259787 0.525833
vn 0.884008 0.343513 0.317062
vn 0.884008 0.343513 0.317062
vn 0.887325 0.449014 0.105072
vn 0.887325 0.449014 0.105073
vn 0.819572 0.565962 -0.089384
vn 0.819572 0.565962 -0.089384
vn -0.136383 0.670741 0.729045
vn -0.014298 0.600623 0.799404
vn 0.014896 0.638714 0.769300
vn -0.095115 0.701898 0.705898
vn 0.130064 0.544978 0.828301
vn 0.144981 0.588572 0.795339
vn 0.282570 0.509251 0.812907
vn 0.282405 0.556378 0.781467
vn 0.428293 0.496940 0.754729
vn 0.413717 0.545285 0.729042
vn 0.552969 0.509251 0.659461
vn 0.526063 0.556378 0.643196
vn 0.644394 0.544977 0.536429
vn 0.608446 0.588572 0.532332
vn 0.693617 0.600623 0.397677
vn 0.652801 0.638714 0.407302
vn 0.695821 0.670741 0.256786
vn 0.654788 0.701898 0.280344
vn 0.650791 0.748467 0.127548
vn 0.614210 0.771937 0.163887
vn 0.562934 0.826193 0.022614
vn 0.535042 0.841976 0.069330
vn 0.440848 0.896311 -0.047745
vn 0.425030 0.905160 0.005929
vn 0.296488 0.951957 -0.076642
vn 0.294946 0.955302 -0.020110
vn 0.143981 0.987683 -0.061248
vn 0.157522 0.987496 -0.006238
vn -0.001742 0.999994 -0.003070
vn 0.026210 0.998589 0.046186
vn -0.126418 0.987683 0.092198
vn -0.086136 0.987496 0.132033
vn -0.217842 0.951957 0.215229
vn -0.168519 0.955302 0.242897
vn -0.267066 0.896311 0.353981
vn -0.212875 0.905160 0.367927
vn -0.269270 0.826193 0.494873
vn -0.214861 0.841976 0.494885
vn -0.224240 0.748467 0.624110
vn -0.174284 0.771937 0.611341
vn 0.098226 0.736400 0.669378
vn 0.024750 0.778600 0.627033
vn 0.185110 0.702909 0.686770
vn 0.276897 0.681407 0.677505
vn 0.364600 0.673998 0.642490
vn 0.439636 0.681407 0.585153
vn 0.494660 0.702910 0.511106
vn 0.524285 0.736400 0.427599
vn 0.525612 0.778600 0.342804
vn 0.498510 0.825379 0.265021
vn 0.445633 0.872159 0.201866
vn 0.372156 0.914359 0.159521
vn 0.285273 0.947849 0.142129
vn 0.193487 0.969352 0.151394
vn 0.105783 0.976761 0.186409
vn 0.030747 0.969352 0.243746
vn -0.024277 0.947849 0.317793
vn -0.053902 0.914359 0.401300
vn -0.055229 0.872159 0.486095
vn -0.028127 0.825379 0.563878
vn 0.246774 0.866025 0.434859
s 1
g Scanner_Dish
usemtl initialShadingGroup
f 2/1/1 1/2/2 101/3/3
f 3/4/4 2/1/1 101/3/3
f 4/5/5 3/4/4 101/3/3
f 5/6/6 4/5/5 101/3/3
f 6/7/7 5/6/6 101/3/3
f 7/8/8 6/7/7 101/3/3
f 8/9/9 7/8/8 101/3/3
f 9/10/10 8/9/9 101/3/3
f 10/11/11 9/10/10 101/3/3
f 11/12/12 10/11/11 101/3/3
f 12/13/13 11/12/12 101/3/3
f 13/14/14 12/13/13 101/3/3
f 14/15/15 13/14/14 101/3/3
f 15/16/16 14/15/15 101/3/3
f 16/17/17 15/16/16 101/3/3
f 17/18/18 16/17/17 101/3/3
f 18/19/19 17/18/18 101/3/3
f 19/20/20 18/19/19 101/3/3
f 20/21/21 19/20/20 101/3/3
f 1/2/2 20/21/21 101/3/3
f 1/2/2 2/1/1 22/122/22 21/104/23
f 2/1/1 3/4/4 23/121/24 22/122/22
f 3/4/4 4/5/5 24/120/25 23/121/24
f 4/5/5 5/6/6 25/119/26 24/120/25
f 5/6/6 6/7/7 26/118/27 25/119/26
f 6/7/7 7/8/8 27/117/28 26/118/27
f 7/8/8 8/9/9 28/116/29 27/117/28
f 8/9/9 9/10/10 29/115/30 28/116/29
f 9/10/10 10/11/11 30/114/31 29/115/30
f 10/11/11 11/12/12 31/113/32 30/114/31
f 11/12/12 12/13/13 32/112/33 31/113/32
f 12/13/13 13/14/14 33/111/34 32/112/33
f 13/14/14 14/15/15 34/110/35 33/111/34
f 14/15/15 15/16/16 35/109/36 34/110/35
f 15/16/16 16/17/17 36/108/37 35/109/36
f 16/17/17 17/18/18 37/107/38 36/108/37
f 17/18/18 18/19/19 38/106/39 37/107/38
f 18/19/19 19/20/20 39/105/40 38/106/39
f 19/20/20 20/21/21 40/103/41 39/105/40
f 20/21/21 1/2/2 21/104/23 40/103/41
s 2
f 21/23/42 22/22/43 42/42/44 41/43/45
f 22/22/43 23/24/46 43/44/47 42/42/44
f 23/24/46 24/25/48 44/45/49 43/44/47
f 24/25/48 25/26/50 45/46/51 44/45/49
f 25/26/50 26/27/52 46/47/53 45/46/51
f 26/27/52 27/28/54 47/48/55 46/47/53
f 27/28/54 28/29/56 48/49/57 47/48/55
f 28/29/56 29/30/58 49/50/59 48/49/57
f 29/30/58 30/31/60 50/51/61 49/50/59
f 30/31/60 31/32/62 51/52/63 50/51/61
f 31/32/62 32/33/64 52/53/65 51/52/63
f 32/33/64 33/34/66 53/54/67 52/53/65
f 33/34/66 34/35/68 54/55/69 53/54/67
f 34/35/68 35/36/70 55/56/71 54/55/69
f 35/36/70 36/37/72 56/57/73 55/56/71
f 36/37/72 37/38/74 57/58/75 56/57/73
f 37/38/74 38/39/76 58/59/77 57/58/75
f 38/39/76 39/40/78 59/60/79 58/59/77
f 39/40/78 40/41/80 60/61/81 59/60/79
f 40/41/80 21/23/42 41/43/45 60/61/81
s 3
f 41/43/82 42/42/83 62/62/84 61/63/85
f 42/42/83 43/44/86 63/64/87 62/62/84
f 43/44/86 44/45/88 64/65/89 63/64/87
f 44/45/88 45/46/90 65/66/91 64/65/89
f 45/46/90 46/47/92 66/67/93 65/66/91
f 46/47/92 47/48/94 67/68/95 66/67/93
f 47/48/94 48/49/96 68/69/97 67/68/95
f 48/49/96 49/50/98 69/70/99 68/69/97
f 49/50/98 50/51/100 70/71/101 69/70/99
f 50/51/100 51/52/102 71/72/103 70/71/101
f 51/52/102 52/53/104 72/73/105 71/72/103
f 52/53/104 53/54/106 73/74/107 72/73/105
f 53/54/106 54/55/108 74/75/109 73/74/107
f 54/55/108 55/56/110 75/76/111 74/75/109
f 55/56/110 56/57/112 76/77/113 75/76/111
f 56/57/112 57/58/114 77/78/115 76/77/113
f 57/58/114 58/59/116 78/79/117 77/78/115
f 58/59/116 59/60/118 79/80/119 78/79/117
f 59/60/118 60/61/120 80/81/121 79/80/119
f 60/61/120 41/43/82 61/63/85 80/81/121
f 61/63/85 62/62/84 82/82/122 81/83/123
f 62/62/84 63/64/87 83/84/124 82/82/122
f 63/64/87 64/65/89 84/85/125 83/84/124
f 64/65/89 65/66/91 85/86/126 84/85/125
f 65/66/91 66/67/93 86/87/127 85/86/126
f 66/67/93 67/68/95 87/88/128 86/87/127
f 67/68/95 68/69/97 88/89/129 87/88/128
f 68/69/97 69/70/99 89/90/130 88/89/129
f 69/70/99 70/71/101 90/91/131 89/90/130
f 70/71/101 71/72/103 91/92/132 90/91/131
f 71/72/103 72/73/105 92/93/133 91/92/132
f 72/73/105 73/74/107 93/94/134 92/93/133
f 73/74/107 74/75/109 94/95/135 93/94/134
f 74/75/109 75/76/111 95/96/136 94/95/135
f 75/76/111 76/77/113 96/97/137 95/96/136
f 76/77/113 77/78/115 97/98/138 96/97/137
f 77/78/115 78/79/117 98/99/139 97/98/138
f 78/79/117 79/80/119 99/100/140 98/99/139
f 79/80/119 80/81/121 100/101/141 99/100/140
f 80/81/121 61/63/85 81/83/123 100/101/141
f 81/83/123 82/82/122 102/102/142
f 82/82/122 83/84/124 102/102/142
f 83/84/124 84/85/125 102/102/142
f 84/85/125 85/86/126 102/102/142
f 85/86/126 86/87/127 102/102/142
f 86/87/127 87/88/128 102/102/142
f 87/88/128 88/89/129 102/102/142
f 88/89/129 89/90/130 102/102/142
f 89/90/130 90/91/131 102/102/142
f 90/91/131 91/92/132 102/102/142
f 91/92/132 92/93/133 102/102/142
f 92/93/133 93/94/134 102/102/142
f 93/94/134 94/95/135 102/102/142
f 94/95/135 95/96/136 102/102/142
f 95/96/136 96/97/137 102/102/142
f 96/97/137 97/98/138 102/102/142
f 97/98/138 98/99/139 102/102/142
f 98/99/139 99/100/140 102/102/142
f 99/100/140 100/101/141 102/102/142
f 100/101/141 81/83/123 102/102/142
