# This file uses centimeters as units for non-parametric coordinates.

mtllib Switchboard.mtl
g default
v -5.416469 0.660893 0.500000
v 5.416469 0.660893 0.500000
v -5.416469 11.493830 0.500000
v 5.416469 11.493830 0.500000
v -6.014523 12.091883 -0.503445
v 6.014523 12.091883 -0.503445
v -6.014523 0.062840 -0.503445
v 6.014523 0.062840 -0.503445
v 1.935038 11.493830 0.500000
v 2.148693 12.091883 -0.503445
v 2.148693 0.062840 -0.503445
v 1.935038 0.660893 0.500000
v 5.416469 3.656091 0.500000
v 1.935038 3.656091 0.500000
v -5.416469 3.656091 0.500000
v -6.014523 3.388749 -0.503445
v 2.148693 3.388749 -0.503445
v 6.014523 3.388749 -0.503445
v 1.426989 4.197740 0.500000
v -4.908421 4.197740 0.500000
v 1.426989 10.952181 0.500000
v -4.908421 10.952181 0.500000
v 1.185051 4.455681 0.020984
v -4.666482 4.455681 0.020984
v 1.185051 10.694239 0.020984
v -4.666482 10.694239 0.020984
v 1.072600 4.575571 0.237440
v -4.554032 4.575571 0.237440
v 1.072600 10.574350 0.237440
v -4.554032 10.574350 0.237440
v 3.606272 4.313013 0.500000
v 3.606272 10.836906 0.500000
v 3.745233 4.313013 0.500000
v 3.745233 10.836906 0.500000
v 3.595454 4.118204 -0.434144
v 3.595454 11.362426 -0.434144
v 3.749759 4.118204 -0.434144
v 3.749759 11.362426 -0.434144
v -5.000448 0.997948 0.500000
v 1.519016 0.997948 0.500000
v 1.519016 3.319035 0.500000
v -5.000448 3.319035 0.500000
v -4.509958 1.172575 0.733562
v 1.028526 1.172575 0.733562
v 1.028526 3.144409 0.733562
v -4.509958 3.144409 0.733562
vt 0.574273 0.087518
vt 0.782175 0.096516
vt 0.777056 0.168810
vt 0.572211 0.158222
vt 0.525393 0.467700
vt 0.791826 0.483541
vt 0.168805 0.497890
vt 0.490050 0.498941
vt 0.493247 0.161273
vt 0.168885 0.153034
vt 0.169553 0.019104
vt 0.508085 0.027929
vt 0.818691 0.075957
vt 0.539251 0.064853
vt 0.944845 0.094185
vt 0.014796 0.021193
vt 0.983851 0.195640
vt 0.938882 0.202622
vt 0.536502 0.176955
vt 0.914964 0.485671
vt 0.016659 0.498655
vt 0.810059 0.193112
vt 0.335830 0.761361
vt 0.761827 0.723989
vt 0.762638 0.733387
vt 0.336652 0.771116
vt 0.574347 0.219965
vt 0.768569 0.232262
vt 0.756098 0.440484
vt 0.565820 0.429623
vt 0.790243 0.212288
vt 0.554519 0.198349
vt 0.774785 0.462313
vt 0.544757 0.448874
vt 0.775320 0.226102
vt 0.568174 0.213254
vt 0.761925 0.447270
vt 0.559262 0.435668
vt 0.831057 0.687508
vt 0.361490 0.698962
vt 0.756385 0.794491
vt 0.282677 0.749407
vt 0.802146 0.087494
vt 0.554845 0.077159
vt 0.795305 0.179750
vt 0.552794 0.166294
vt 0.852082 0.459880
vt 0.857071 0.459866
vt 0.875004 0.222492
vt 0.869770 0.221814
vt 0.015750 0.152929
vt 0.981156 0.063623
vt 0.830869 0.030236
vt 0.797923 0.528844
vt 0.949857 0.516187
vt 0.372851 0.828429
vt 0.831852 0.698044
vt 0.282709 0.742550
vt 0.745026 0.665336
vn 0.000000 0.000000 1.000000
vn 0.000000 0.000000 1.000000
vn 0.000000 0.000000 1.000000
vn 0.000000 0.000000 1.000000
vn 0.000000 0.859006 0.511966
vn 0.000000 0.859005 0.511966
vn 0.000000 0.859005 0.511966
vn 0.000000 0.859006 0.511966
vn 0.000000 0.000000 -1.000000
vn 0.000000 0.000000 -1.000000
vn 0.000000 0.000000 -1.000000
vn 0.000000 0.000000 -1.000000
vn 0.000000 -0.859006 0.511966
vn 0.000000 -0.859005 0.511967
vn 0.000000 -0.859005 0.511967
vn 0.000000 -0.859006 0.511966
vn 0.859005 0.000000 0.511967
vn 0.859005 0.000000 0.511967
vn 0.859005 0.000000 0.511967
vn 0.859005 0.000000 0.511967
vn -0.859005 0.000000 0.511967
vn -0.859005 0.000000 0.511967
vn -0.859005 0.000000 0.511967
vn -0.859005 0.000000 0.511967
vn 0.000000 0.859005 0.511967
vn 0.000000 0.859005 0.511967
vn 0.000000 0.000000 -1.000000
vn 0.000000 0.000000 -1.000000
vn 0.000000 -0.859005 0.511967
vn 0.000000 -0.859005 0.511967
vn 0.000000 0.000000 1.000000
vn 0.000000 0.000000 1.000000
vn 0.000000 0.000000 1.000000
vn 0.000000 0.000000 1.000000
vn 0.000000 0.000000 1.000000
vn 0.000000 0.000000 1.000000
vn 0.000000 0.000000 1.000000
vn 0.000000 0.000000 1.000000
vn 0.000000 0.000000 1.000000
vn 0.000000 0.000000 1.000000
vn 0.000000 0.000000 1.000000
vn 0.000000 0.000000 1.000000
vn -0.859005 0.000000 0.511967
vn -0.859005 0.000000 0.511967
vn 0.000000 0.000000 -1.000000
vn 0.000000 0.000000 -1.000000
vn 0.000000 0.000000 -1.000000
vn 0.859005 0.000000 0.511967
vn 0.859005 0.000000 0.511967
vn 0.000000 0.000000 1.000000
vn 0.000000 0.000000 1.000000
vn 0.000000 0.000000 1.000000
vn 0.000000 0.000000 1.000000
vn 0.000000 0.000000 1.000000
vn 0.000000 0.000000 1.000000
vn 0.000000 0.000000 1.000000
vn 0.000000 0.880464 0.474113
vn 0.000000 0.880464 0.474113
vn 0.000000 0.880464 0.474113
vn 0.000000 0.880464 0.474113
vn -0.892608 0.000000 0.450833
vn -0.892608 0.000000 0.450833
vn -0.892608 0.000000 0.450833
vn -0.892608 0.000000 0.450833
vn 0.000000 -0.880464 0.474113
vn 0.000000 -0.880464 0.474113
vn 0.000000 -0.880464 0.474113
vn 0.000000 -0.880464 0.474113
vn 0.892608 0.000000 0.450834
vn 0.892608 0.000000 0.450834
vn 0.892608 0.000000 0.450834
vn 0.892608 0.000000 0.450834
vn 0.000000 -0.874781 0.484519
vn 0.000000 -0.874781 0.484519
vn 0.000000 -0.874781 0.484519
vn 0.000000 -0.874781 0.484519
vn 0.887396 0.000000 0.461008
vn 0.887396 0.000000 0.461008
vn 0.887396 0.000000 0.461008
vn 0.887396 0.000000 0.461008
vn 0.000000 0.874783 0.484515
vn 0.000000 0.874783 0.484515
vn 0.000000 0.874783 0.484515
vn 0.000000 0.874783 0.484515
vn -0.887396 0.000000 0.461007
vn -0.887396 0.000000 0.461007
vn -0.887396 0.000000 0.461007
vn -0.887396 0.000000 0.461007
vn 0.000000 0.000000 1.000000
vn 0.000000 0.000000 1.000000
vn 0.000000 0.000000 1.000000
vn 0.000000 0.000000 1.000000
vn 0.000000 0.000000 1.000000
vn 0.999933 0.000000 -0.011580
vn 0.999933 0.000000 -0.011580
vn 0.999933 0.000000 -0.011580
vn 0.999933 0.000000 -0.011580
vn 0.000000 0.978939 -0.204151
vn 0.000000 0.978939 -0.204151
vn 0.000000 0.978939 -0.204151
vn 0.000000 0.978939 -0.204151
vn -0.999988 0.000000 -0.004845
vn -0.999988 0.000000 -0.004845
vn -0.999988 0.000000 -0.004845
vn -0.999988 0.000000 -0.004845
vn 0.000000 -0.871550 -0.490306
vn 0.000000 -0.871550 -0.490306
vn 0.000000 -0.871550 -0.490306
vn 0.000000 -0.871550 -0.490306
vn 0.000000 0.000000 1.000000
vn 0.000000 0.000000 1.000000
vn 0.000000 0.000000 1.000000
vn 0.000000 0.000000 1.000000
vn 0.000000 0.000000 1.000000
vn 0.000000 -0.800896 0.598803
vn 0.000000 -0.800896 0.598803
vn 0.000000 -0.800896 0.598803
vn 0.000000 -0.800896 0.598803
vn 0.429926 0.000000 0.902864
vn 0.429926 0.000000 0.902864
vn 0.429926 0.000000 0.902864
vn 0.429926 0.000000 0.902864
vn 0.000000 0.800896 0.598804
vn 0.000000 0.800896 0.598804
vn 0.000000 0.800896 0.598804
vn 0.000000 0.800896 0.598804
vn -0.429926 0.000000 0.902864
vn -0.429926 0.000000 0.902864
vn -0.429926 0.000000 0.902864
vn -0.429926 0.000000 0.902864
s off
g pCube1
usemtl initialShadingGroup
f 43/1/1 44/2/2 45/3/3 46/4/4
s 1
f 3/5/5 9/6/6 10/54/7 5/8/8
s 2
f 16/9/9 17/10/10 11/11/11 7/12/12
s 3
f 7/12/13 11/53/14 12/13/15 1/14/16
s 4
f 2/15/17 8/52/18 18/17/19 13/18/20
s 5
f 7/12/21 1/14/22 15/19/23 16/9/24
s 1
f 9/6/6 4/20/25 6/55/26 10/54/7
s 2
f 11/11/11 17/10/10 18/51/27 8/16/28
s 3
f 12/13/15 11/53/14 8/52/29 2/15/30
s 6
f 14/22/31 12/13/32 2/15/33 13/18/34
s off
f 36/23/35 35/24/36 37/25/37 38/26/38
f 28/27/39 27/28/40 29/29/41 30/30/42
s 5
f 16/9/24 15/19/23 3/5/43 5/8/44
s 2
f 5/8/45 10/7/46 17/10/10 16/9/9
f 18/51/27 17/10/10 10/7/46 6/21/47
s 4
f 13/18/20 18/17/19 6/55/48 4/20/49
s 6
f 15/19/50 14/22/31 19/31/51 20/32/52
f 14/22/31 9/6/53 21/33/54 19/31/51
f 9/6/53 3/5/55 22/34/56 21/33/54
f 3/5/55 15/19/50 20/32/52 22/34/56
s off
f 20/32/57 19/31/58 23/35/59 24/36/60
f 19/31/61 21/33/62 25/37/63 23/35/64
f 21/33/65 22/34/66 26/38/67 25/37/68
f 22/34/69 20/32/70 24/36/71 26/38/72
f 24/36/73 23/35/74 27/28/75 28/27/76
f 23/35/77 25/37/78 29/29/79 27/28/80
f 25/37/81 26/38/82 30/30/83 29/29/84
f 26/38/85 24/36/86 28/27/87 30/30/88
s 6
f 9/6/53 14/22/31 31/50/89 32/47/90
f 14/22/31 13/18/34 33/49/91 31/50/89
f 13/18/34 4/20/92 34/48/93 33/49/91
f 4/20/92 9/6/53 32/47/90 34/48/93
s off
f 32/40/94 31/59/95 35/24/96 36/23/97
f 31/39/98 33/57/99 37/25/100 35/24/101
f 33/41/102 34/56/103 38/26/104 37/25/105
f 34/42/106 32/58/107 36/23/108 38/26/109
s 6
f 1/14/110 12/13/32 40/43/111 39/44/112
f 12/13/32 14/22/31 41/45/113 40/43/111
f 14/22/31 15/19/50 42/46/114 41/45/113
f 15/19/50 1/14/110 39/44/112 42/46/114
s off
f 39/44/115 40/43/116 44/2/117 43/1/118
f 40/43/119 41/45/120 45/3/121 44/2/122
f 41/45/123 42/46/124 46/4/125 45/3/126
f 42/46/127 39/44/128 43/1/129 46/4/130
